<?xml version="1.0"?>
<svg xmlns="http://www.w3.org/2000/svg" viewBox="0 0 64 64" width="512" height="512"><metadata><?xpacket begin="﻿" id="W5M0MpCehiHzreSzNTczkc9d"?>
<x:xmpmeta xmlns:x="adobe:ns:meta/" x:xmptk="Adobe XMP Core 5.6-c145 79.163499, 2018/08/13-16:40:22        ">
   <rdf:RDF xmlns:rdf="http://www.w3.org/1999/02/22-rdf-syntax-ns#">
      <rdf:Description rdf:about=""
            xmlns:xmp="http://ns.adobe.com/xap/1.0/"
            xmlns:xmpMM="http://ns.adobe.com/xap/1.0/mm/"
            xmlns:stEvt="http://ns.adobe.com/xap/1.0/sType/ResourceEvent#">
         <xmp:Rating>4</xmp:Rating>
         <xmp:MetadataDate>2019-03-27T11:38:52-07:00</xmp:MetadataDate>
         <xmpMM:InstanceID>xmp.iid:e75ba14e-4fa7-c64d-899a-a8057c87d63b</xmpMM:InstanceID>
         <xmpMM:DocumentID>xmp.did:e75ba14e-4fa7-c64d-899a-a8057c87d63b</xmpMM:DocumentID>
         <xmpMM:OriginalDocumentID>xmp.did:e75ba14e-4fa7-c64d-899a-a8057c87d63b</xmpMM:OriginalDocumentID>
         <xmpMM:History>
            <rdf:Seq>
               <rdf:li>
                  <rdf:Description>
                     <stEvt:action>saved</stEvt:action>
                     <stEvt:instanceID>xmp.iid:e75ba14e-4fa7-c64d-899a-a8057c87d63b</stEvt:instanceID>
                     <stEvt:when>2019-03-27T11:38:52-07:00</stEvt:when>
                     <stEvt:softwareAgent>Adobe Bridge CC 2019 (Windows)</stEvt:softwareAgent>
                     <stEvt:changed>/metadata</stEvt:changed>
                  </rdf:Description>
               </rdf:li>
            </rdf:Seq>
         </xmpMM:History>
      </rdf:Description>
   </rdf:RDF>
</x:xmpmeta>
                                                                                                    
                                                                                                    
                                                                                                    
                                                                                                    
                                                                                                    
                                                                                                    
                                                                                                    
                                                                                                    
                                                                                                    
                                                                                                    
                                                                                                    
                                                                                                    
                                                                                                    
                                                                                                    
                                                                                                    
                                                                                                    
                                                                                                    
                                                                                                    
                                                                                                    
                                                                                                    
                           
<?xpacket end="w"?></metadata>
<g id="_17-warning" data-name="17-warning"><polygon points="63 22 63 30 57 30 55 30 63 22" style="fill:#fc9b28"/><polygon points="59 22 63 22 55 30 53 30 49 30 57 22 59 22" style="fill:#ffd24f"/><polygon points="47 22 51 22 43 30 37 30 45 22 47 22" style="fill:#ffd24f"/><polygon points="39 22 31 30 25 30 33 22 39 22" style="fill:#ffd24f"/><polygon points="27 22 19 30 13 30 21 22 27 22" style="fill:#ffd24f"/><polygon points="15 22 7 30 1 30 9 22 15 22" style="fill:#ffd24f"/><polygon points="57 22 49 30 43 30 51 22 57 22" style="fill:#fc9b28"/><polygon points="45 22 37 30 31 30 39 22 45 22" style="fill:#fc9b28"/><polygon points="33 22 25 30 19 30 27 22 33 22" style="fill:#fc9b28"/><polygon points="17 22 21 22 13 30 11 30 7 30 15 22 17 22" style="fill:#fc9b28"/><polygon points="9 22 1 30 1 22 5 22 9 22" style="fill:#fc9b28"/><polygon points="9 52 9 56 1 56 1 52 3 52 7 52 9 52" style="fill:#545465"/><polygon points="63 52 63 56 55 56 55 52 57 52 61 52 63 52" style="fill:#545465"/><polygon points="54.64 39 55.36 43 8.64 43 9.36 39 54.64 39" style="fill:#545465"/><polygon points="54.64 39 53 30 55 30 57 30 61 52 57 52 55.36 43 54.64 39" style="fill:#7c828d"/><polygon points="9.36 39 8.64 43 7 52 3 52 7 30 11 30 9.36 39" style="fill:#7c828d"/><polygon points="17 18 17 22 15 22 9 22 5 22 5 18 7 18 11 18 15 18 17 18" style="fill:#7c828d"/><polygon points="59 18 59 22 57 22 51 22 47 22 47 18 49 18 53 18 57 18 59 18" style="fill:#7c828d"/><path d="M11,18H7V10A2.006,2.006,0,0,1,9,8h4a2.006,2.006,0,0,1,2,2v8Z" style="fill:#c55f54"/><path d="M53,18H49V10a2.006,2.006,0,0,1,2-2h4a2.006,2.006,0,0,1,2,2v8Z" style="fill:#c55f54"/><rect x="10" y="12" width="2" height="6" style="fill:#bb504e"/><rect x="52" y="12" width="2" height="6" style="fill:#bb504e"/></g></svg>
