<svg height="490.66667pt" viewBox="0 0 490.66667 490.66667" width="490.66667pt" xmlns="http://www.w3.org/2000/svg"><path d="m85.332031 0v85.332031h-85.332031zm0 0" fill="#f6b445"/><path d="m384 256v192c0 23.5625-19.101562 42.667969-42.667969 42.667969h-298.664062c-23.566407 0-42.667969-19.105469-42.667969-42.667969v-362.667969h85.332031v-85.332031h256c23.566407 0 42.667969 19.101562 42.667969 42.667969zm0 0" fill="#fed049"/><path d="m384 352c11.746094-.085938 21.246094-9.585938 21.332031-21.332031h21.335938c35.34375 0 64 28.652343 64 64v96h-213.335938v-96c0-35.347657 28.65625-64 64-64h21.335938c.035156 11.765625 9.566406 21.296875 21.332031 21.332031zm0 0" fill="#49aaee"/><path d="m405.332031 330.667969c-.085937 11.746093-9.585937 21.246093-21.332031 21.332031-11.765625-.035156-21.296875-9.566406-21.332031-21.332031v-25.707031c13.625 5.832031 29.039062 5.832031 42.664062 0zm0 0" fill="#fac0b1"/><path d="m437.332031 234.667969v21.332031c-.046875 21.210938-12.589843 40.402344-32 48.960938-13.625 5.832031-29.039062 5.832031-42.664062 0l-16.429688-11.199219c-9.972656-10.039063-15.570312-23.613281-15.570312-37.761719v-21.332031c8.539062.179687 16.785156-3.132813 22.828125-9.171875 6.039062-6.042969 9.351562-14.289063 9.171875-22.828125 0 0 0 32 74.664062 32zm0 0" fill="#fed0b8"/><path d="m437.332031 202.667969v32c-74.664062 0-74.664062-32-74.664062-32 .179687 8.539062-3.132813 16.785156-9.171875 22.828125-6.042969 6.039062-14.289063 9.351562-22.828125 9.171875v-32c0-29.457031 23.875-53.335938 53.332031-53.335938s53.332031 23.878907 53.332031 53.335938zm0 0" fill="#768ba0"/><path d="m373.332031 373.332031h21.335938v96h-21.335938zm0 0" fill="#3398d6"/><path d="m245.332031 170.667969v136.105469c-.003906 8.09375-4.589843 15.492187-11.839843 19.09375l-73.492188 36.800781-73.492188-36.800781c-7.25-3.601563-11.835937-11-11.839843-19.09375v-136.105469c.035156-11.769531 9.566406-21.300781 21.332031-21.335938h128c11.765625.035157 21.296875 9.566407 21.332031 21.335938zm0 0" fill="#a4b0c0"/><path d="m160 373.332031c-1.660156 0-3.296875-.386719-4.777344-1.128906l-73.496094-36.800781c-10.882812-5.382813-17.757812-16.488282-17.726562-28.628906v-136.105469c0-17.675781 14.328125-32 32-32h128c17.671875 0 32 14.324219 32 32v136.105469c.027344 12.140624-6.847656 23.242187-17.726562 28.628906l-73.496094 36.800781c-1.480469.742187-3.117188 1.128906-4.777344 1.128906zm-64-213.332031c-5.890625 0-10.667969 4.777344-10.667969 10.667969v136.105469c.007813 4.050781 2.308594 7.75 5.941407 9.546874l68.726562 34.421876 68.714844-34.410157c3.640625-1.796875 5.949218-5.5 5.953125-9.558593v-136.105469c0-5.890625-4.777344-10.667969-10.667969-10.667969zm0 0" fill="#768ba0"/><path d="m138.667969 288c-2.828125 0-5.542969-1.125-7.542969-3.125l-21.332031-21.332031 15.082031-15.085938 13.792969 13.792969 56.457031-56.457031 15.082031 15.082031-64 64c-2 2-4.710937 3.125-7.539062 3.125zm0 0" fill="#f1f2f2"/><g fill="#f6b445"><path d="m85.332031 458.667969h-21.332031c-17.671875 0-32-14.328125-32-32v-21.335938h21.332031v21.335938c0 5.890625 4.777344 10.664062 10.667969 10.664062h21.332031zm0 0"/><path d="m106.667969 437.332031h21.332031v21.335938h-21.332031zm0 0"/></g></svg>