<?xml version="1.0" encoding="utf-8"?>
<!-- Generator: Adobe Illustrator 23.0.3, SVG Export Plug-In . SVG Version: 6.00 Build 0)  -->
<svg version="1.1" id="Capa_1" xmlns="http://www.w3.org/2000/svg" xmlns:xlink="http://www.w3.org/1999/xlink" x="0px" y="0px"
	 viewBox="0 0 512 512" style="enable-background:new 0 0 512 512;" xml:space="preserve">
<style type="text/css">
	.st0{fill:#FEDB41;}
	.st1{fill:#3C3A41;}
	.st2{fill:#DDBE04;}
</style>
<g>
	<path class="st0" d="M489.4,389.9L308.5,64.1C297.7,44.6,278.2,33,256,33s-41.7,11.7-52.5,31.2L22.9,389.6l-0.3,0.3
		c-10.5,18.9-9.9,41.1,0.9,59.7C34.3,467.9,53.8,479,75.1,479h361.8c21.3,0,40.8-11.1,51.6-29.4C499.3,431,499.9,408.8,489.4,389.9z
		"/>
	<g>
		<path class="st1" d="M286,389c0,16.5-13.5,30-30,30s-30-13.5-30-30s13.5-30,30-30S286,372.5,286,389z"/>
		<path class="st1" d="M286,134.1v150c0,16.5-13.5,30-30,30s-30-13.5-30-30V134c0-16.5,13.5-30,30-30S286,117.6,286,134.1z"/>
	</g>
	<path class="st2" d="M502.6,382.7L321.7,56.6c-13.5-24-38.1-38.7-65.7-38.7s-52.2,14.7-65.7,38.7L9.4,382.7
		c-12.9,23.4-12.6,51.3,1.2,74.4C24.1,480.2,48.4,494,75.1,494h361.8c26.7,0,51-13.8,64.5-36.9C515.2,434,515.5,406.1,502.6,382.7z
		 M475.6,441.9c-8.1,13.8-22.8,22.2-38.7,22.2H75.1c-15.9,0-30.6-8.4-38.7-22.2c-4.2-7.2-6.3-15-6.3-22.8c0-7.5,1.8-15,5.7-21.9
		L216.7,71.3C224.8,56.6,239.5,48,256,48s31.2,8.7,39.3,23.4l180.9,325.8C484,411.3,483.7,428,475.6,441.9z"/>
</g>
</svg>
