<?xml version="1.0" encoding="UTF-8" standalone="no"?>
<svg
   xmlns:dc="http://purl.org/dc/elements/1.1/"
   xmlns:cc="http://creativecommons.org/ns#"
   xmlns:rdf="http://www.w3.org/1999/02/22-rdf-syntax-ns#"
   xmlns:svg="http://www.w3.org/2000/svg"
   xmlns="http://www.w3.org/2000/svg"
   viewBox="0 0 407.58667 65.146667"
   height="65.146667"
   width="407.58667"
   xml:space="preserve"
   id="svg2"
   version="1.1"><metadata
     id="metadata8"><rdf:RDF><cc:Work
         rdf:about=""><dc:format>image/svg+xml</dc:format><dc:type
           rdf:resource="http://purl.org/dc/dcmitype/StillImage" /></cc:Work></rdf:RDF></metadata><defs
     id="defs6" /><g
     transform="matrix(1.3333333,0,0,-1.3333333,0,65.146667)"
     id="g10"><g
       transform="scale(0.1)"
       id="g12"><path
         id="path14"
         style="fill:#4396d8;fill-opacity:1;fill-rule:nonzero;stroke:none"
         d="m 1367.1,486.711 c 3.57,-0.453 7.11,-0.961 10.62,-1.57 -3.51,0.605 -7.05,1.125 -10.62,1.57" /><path
         id="path16"
         style="fill:#4396d8;fill-opacity:1;fill-rule:nonzero;stroke:none"
         d="m 1354.02,487.984 c 3.35,-0.234 6.7,-0.507 10.01,-0.882 -3.32,0.371 -6.66,0.652 -10.01,0.882" /><path
         id="path18"
         style="fill:#4396d8;fill-opacity:1;fill-rule:nonzero;stroke:none"
         d="m 1337.4,488.629 c 4.45,0 8.87,-0.145 13.26,-0.387 -4.39,0.242 -8.81,0.387 -13.26,0.387" /><path
         id="path20"
         style="fill:#c9e326;fill-opacity:1;fill-rule:nonzero;stroke:none"
         d="m 1377.72,485.141 c 0.61,-0.102 1.21,-0.215 1.82,-0.325 -0.61,0.11 -1.21,0.219 -1.82,0.325" /><path
         id="path22"
         style="fill:#c9e326;fill-opacity:1;fill-rule:nonzero;stroke:none"
         d="m 1364.03,487.102 c 1.03,-0.118 2.05,-0.262 3.07,-0.391 -1.02,0.129 -2.04,0.273 -3.07,0.391" /><path
         id="path24"
         style="fill:#c9e326;fill-opacity:1;fill-rule:nonzero;stroke:none"
         d="m 1325.27,488.324 c 4.01,0.203 8.06,0.305 12.13,0.305 -4.07,0 -8.12,-0.102 -12.13,-0.305" /><path
         id="path26"
         style="fill:#c9e326;fill-opacity:1;fill-rule:nonzero;stroke:none"
         d="m 1350.66,488.242 c 1.12,-0.062 2.23,-0.179 3.36,-0.258 -1.13,0.079 -2.24,0.192 -3.36,0.258" /><path
         id="path28"
         style="fill:#4396d8;fill-opacity:1;fill-rule:nonzero;stroke:none"
         d="m 137.551,181.957 v 91.297 c 0,1.398 -0.703,2.101 -2.102,2.101 H 41.4453 c -1.4023,0 -2.1015,-0.703 -2.1015,-2.101 v -91.297 c 0,-1.406 0.6992,-2.102 2.1015,-2.102 h 94.0037 c 1.399,0 2.102,0.696 2.102,2.102 z m -2.102,132.742 c 11.41,0 21.172,-4.051 29.281,-12.168 8.106,-8.105 12.165,-17.859 12.165,-29.277 v -91.297 c 0,-11.418 -4.059,-21.172 -12.165,-29.277 -8.109,-8.117 -17.871,-12.168 -29.281,-12.168 H 39.3438 V 71.4375 H 0 V 314.699 h 135.449" /><path
         id="path30"
         style="fill:#4396d8;fill-opacity:1;fill-rule:nonzero;stroke:none"
         d="m 198.809,371.762 h 39.644 V 181.957 c 0,-1.406 0.602,-2.102 1.801,-2.102 h 35.137 v -39.343 h -35.137 c -11.41,0 -21.172,4.051 -29.281,12.168 -8.106,8.105 -12.164,17.859 -12.164,29.277 v 189.805" /><path
         id="path32"
         style="fill:#4396d8;fill-opacity:1;fill-rule:nonzero;stroke:none"
         d="m 439.668,179.855 v 27.93 h -98.203 v -25.828 c 0,-1.406 0.699,-2.102 2.098,-2.102 z m -2.102,134.844 c 11.414,0 21.172,-4.051 29.286,-12.168 8.105,-8.105 12.164,-17.859 12.164,-29.277 V 140.512 H 343.563 c -11.411,0 -21.168,4.051 -29.282,12.168 -8.105,8.105 -12.164,17.859 -12.164,29.277 v 65.469 h 137.551 v 25.828 c 0,1.398 -0.703,2.101 -2.102,2.101 H 302.117 v 39.344 h 135.449" /><path
         id="path34"
         style="fill:#4396d8;fill-opacity:1;fill-rule:nonzero;stroke:none"
         d="m 643.891,314.699 c 11.414,0 21.172,-4.051 29.285,-12.168 8.101,-8.105 12.16,-17.859 12.16,-29.277 V 140.512 h -39.344 v 132.742 c 0,1.398 -0.703,2.101 -2.101,2.101 h -94.004 c -1.403,0 -2.098,-0.703 -2.098,-2.101 V 140.512 h -39.348 v 174.187 h 135.45" /><path
         id="path36"
         style="fill:#4396d8;fill-opacity:1;fill-rule:nonzero;stroke:none"
         d="m 748.402,247.426 h 98.207 v 25.828 c 0,1.398 -0.703,2.101 -2.101,2.101 h -94 c -1.406,0 -2.106,-0.703 -2.106,-2.101 z m 96.106,67.273 c 11.41,0 21.172,-4.051 29.281,-12.168 8.109,-8.105 12.164,-17.859 12.164,-29.277 V 207.785 H 748.402 v -25.828 c 0,-1.406 0.7,-2.102 2.106,-2.102 H 885.953 V 140.512 H 750.508 c -11.414,0 -21.172,4.051 -29.281,12.168 -8.114,8.105 -12.164,17.859 -12.164,29.277 v 91.297 c 0,11.418 4.05,21.172 12.164,29.277 8.109,8.117 17.867,12.168 29.281,12.168 h 94" /><path
         id="path38"
         style="fill:#4396d8;fill-opacity:1;fill-rule:nonzero;stroke:none"
         d="m 1024.7,275.355 h -67.876 v -93.398 c 0,-1.406 0.699,-2.102 2.106,-2.102 h 65.77 v -39.343 h -65.77 c -11.617,0 -21.426,4.051 -29.434,12.168 -8.008,8.105 -12.012,17.859 -12.012,29.277 v 189.805 h 39.34 v -57.063 h 67.876 v -39.344" /><path
         id="path40"
         style="fill:#8b8889;fill-opacity:1;fill-rule:nonzero;stroke:none"
         d="m 1748.98,275.355 h -67.87 v -93.398 c 0,-1.406 0.7,-2.102 2.1,-2.102 h 65.77 v -39.343 h -65.77 c -11.61,0 -21.42,4.051 -29.43,12.168 -8.01,8.105 -12.01,17.859 -12.01,29.277 v 189.805 h 39.34 v -57.063 h 67.87 v -39.344" /><path
         id="path42"
         style="fill:#8b8889;fill-opacity:1;fill-rule:nonzero;stroke:none"
         d="m 1907.85,275.355 h -94 c -1.4,0 -2.1,-0.703 -2.1,-2.101 v -91.297 c 0,-1.406 0.7,-2.102 2.1,-2.102 h 94 c 1.4,0 2.1,0.696 2.1,2.102 v 91.297 c 0,1.398 -0.7,2.101 -2.1,2.101 z m -94,39.344 h 94 c 11.42,0 21.17,-4.051 29.29,-12.168 8.1,-8.105 12.16,-17.859 12.16,-29.277 v -91.297 c 0,-11.418 -4.06,-21.172 -12.16,-29.277 -8.12,-8.117 -17.87,-12.168 -29.29,-12.168 h -94 c -11.41,0 -21.17,4.051 -29.28,12.168 -8.11,8.105 -12.17,17.859 -12.17,29.277 v 91.297 c 0,11.418 4.06,21.172 12.17,29.277 8.11,8.117 17.87,12.168 29.28,12.168" /><path
         id="path44"
         style="fill:#8b8889;fill-opacity:1;fill-rule:nonzero;stroke:none"
         d="m 2018.67,179.855 h 94.3 c 1.2,0 1.81,0.696 1.81,2.102 v 91.297 c 0,1.398 -0.61,2.101 -1.81,2.101 h -94.3 c -1.4,0 -2.1,-0.703 -2.1,-2.101 v -91.297 c 0,-1.406 0.7,-2.102 2.1,-2.102 z m 135.45,-66.972 c 0,-11.414 -4.01,-21.1721 -12.02,-29.2853 -8.01,-8.1055 -17.72,-12.1602 -29.13,-12.1602 h -106.61 v 39.6405 h 106.61 c 1.2,0 1.81,0.606 1.81,1.805 v 27.629 h -96.11 c -11.41,0 -21.17,4.051 -29.29,12.168 -8.1,8.105 -12.15,17.859 -12.15,29.277 v 91.297 c 0,11.418 4.05,21.172 12.15,29.277 8.12,8.117 17.88,12.168 29.29,12.168 h 94.3 c 11.41,0 21.12,-4.051 29.13,-12.168 8.01,-8.105 12.02,-17.859 12.02,-29.277 V 112.883" /><path
         id="path46"
         style="fill:#8b8889;fill-opacity:1;fill-rule:nonzero;stroke:none"
         d="m 2217.78,247.426 h 98.21 v 25.828 c 0,1.398 -0.71,2.101 -2.1,2.101 h -94.01 c -1.39,0 -2.1,-0.703 -2.1,-2.101 z m 96.11,67.273 c 11.41,0 21.17,-4.051 29.28,-12.168 8.11,-8.105 12.16,-17.859 12.16,-29.277 v -65.469 h -137.55 v -25.828 c 0,-1.406 0.71,-2.102 2.1,-2.102 h 135.45 v -39.343 h -135.45 c -11.4,0 -21.17,4.051 -29.27,12.168 -8.11,8.105 -12.17,17.859 -12.17,29.277 v 91.297 c 0,11.418 4.06,21.172 12.17,29.277 8.1,8.117 17.87,12.168 29.27,12.168 h 94.01" /><path
         id="path48"
         style="fill:#8b8889;fill-opacity:1;fill-rule:nonzero;stroke:none"
         d="m 2494.08,275.355 h -67.87 v -93.398 c 0,-1.406 0.69,-2.102 2.1,-2.102 h 65.77 v -39.343 h -65.77 c -11.61,0 -21.43,4.051 -29.43,12.168 -8.01,8.105 -12.01,17.859 -12.01,29.277 v 189.805 h 39.34 v -57.063 h 67.87 v -39.344" /><path
         id="path50"
         style="fill:#8b8889;fill-opacity:1;fill-rule:nonzero;stroke:none"
         d="m 2653.85,314.699 c 11.21,0 20.93,-4.051 29.13,-12.168 8.21,-8.105 12.31,-17.859 12.31,-29.277 V 140.512 h -39.33 v 132.742 c 0,1.398 -0.71,2.101 -2.11,2.101 h -94 c -1.4,0 -2.11,-0.703 -2.11,-2.101 V 140.512 h -39.33 v 231.25 h 39.33 v -57.063 h 96.11" /><path
         id="path52"
         style="fill:#8b8889;fill-opacity:1;fill-rule:nonzero;stroke:none"
         d="m 2757.46,247.426 h 98.2 v 25.828 c 0,1.398 -0.7,2.101 -2.1,2.101 h -94 c -1.4,0 -2.1,-0.703 -2.1,-2.101 z m 96.1,67.273 c 11.42,0 21.18,-4.051 29.29,-12.168 8.11,-8.105 12.16,-17.859 12.16,-29.277 v -65.469 h -137.55 v -25.828 c 0,-1.406 0.7,-2.102 2.1,-2.102 h 135.45 v -39.343 h -135.45 c -11.41,0 -21.17,4.051 -29.28,12.168 -8.1,8.105 -12.16,17.859 -12.16,29.277 v 91.297 c 0,11.418 4.06,21.172 12.16,29.277 8.11,8.117 17.87,12.168 29.28,12.168 h 94" /><path
         id="path54"
         style="fill:#8b8889;fill-opacity:1;fill-rule:nonzero;stroke:none"
         d="m 2960.18,314.699 h 96.7 v -39.344 h -96.7 c -1.41,0 -2.1,-0.703 -2.1,-2.101 V 140.512 h -39.35 v 132.742 c 0,11.418 4.05,21.172 12.17,29.277 8.1,8.117 17.86,12.168 29.28,12.168" /><path
         id="path56"
         style="fill:#4396d8;fill-opacity:1;fill-rule:nonzero;stroke:none"
         d="m 1441.39,382.547 h 90.78 c -23.05,33.516 -54.29,60.848 -90.78,79.422 v -79.422" /><path
         id="path58"
         style="fill:#8b8889;fill-opacity:1;fill-rule:nonzero;stroke:none"
         d="M 1441.39,320.051 V 105.863 c 0,0 -0.49,0.114 -0.88,0.2 H 1246.53 V 15.2383 C 1272.83,5.55469 1301.14,0 1330.81,0 c 134.93,0 244.31,109.383 244.31,244.316 0,26.457 -4.33,51.872 -12.11,75.735 h -121.62" /><path
         id="path60"
         style="fill:#4396d8;fill-opacity:1;fill-rule:nonzero;stroke:none"
         d="m 1184.04,316.926 c 0,18.129 6.35,33.64 19.09,46.5 12.71,12.89 28.29,19.32 46.74,19.32 H 1378.9 V 483.84 c -15.55,3.105 -31.62,4.789 -48.09,4.789 -134.94,0 -244.32,-109.383 -244.32,-244.313 0,-79.773 38.41,-150.398 97.55,-194.9879 V 316.926" /><path
         id="path62"
         style="fill:#8b8889;fill-opacity:1;fill-rule:nonzero;stroke:none"
         d="M 1246.53,316.926 V 168.582 h 132.37 v 151.684 h -129.03 c -2.23,0 -3.34,-1.118 -3.34,-3.34" /></g></g></svg>